<?xml version="1.0" encoding="UTF-8" standalone="no"?>
<!-- Created with Inkscape (http://www.inkscape.org/) -->

<svg
   width="1920"
   height="1080"
   viewBox="0 0 507.99999 285.75"
   version="1.1"
   id="svg171"
   xml:space="preserve"
   xmlns="http://www.w3.org/2000/svg"
   xmlns:svg="http://www.w3.org/2000/svg"><defs
     id="defs168" /><g
     id="layer1"><g
       id="g185"
       transform="matrix(0.8431388,0,0,0.87453325,103.30838,52.832011)"><path
         stroke="#000000"
         stroke-linejoin="round"
         id="path1"
         stroke-width="15.75px"
         d="M 36.79032,44.605423 C 53.177019,75.098106 76.447719,8.1752726 65.243619,40.334007 42.239118,106.36298 39.86712,151.77282 39.86712,151.77282 c 0,0 4.585098,-70.596095 33.845699,-70.596095 29.260611,0 -7.7772,69.109885 17.759386,71.339235 25.536515,2.22935 67.761025,-66.131412 41.160415,-67.617636 -26.60049,-1.486223 -37.562315,63.902056 -1.9176,66.131406 35.64481,2.22935 86.61711,-111.569512 55.22841,-114.54198 -31.3886,-2.972467 -32.5549,110.82638 -0.6343,113.79886 31.9207,2.97247 85.3607,-115.664747 52.9081,-117.894097 -32.4527,-2.229351 -35.7471,113.798847 -2.2304,114.541967 21.2805,-1.48624 17.2167,-66.50086 44.8813,-65.014617 39.7022,3.309453 20.4321,76.844947 -7.4149,67.623617 -21.3079,-7.62146 -19.5945,-69.101673 7.5381,-67.61543 19.6492,2.562291 33.1489,28.3442 39.0398,9.710252"
         fill="none"
         stroke-linecap="round"
         style="display:inline;opacity:1;stroke-width:9.98729;stroke-miterlimit:4;stroke-dasharray:none;stop-opacity:1"><animate
           dur="5"
           values="0,1739;1739,0;"
           begin="0; animate1.end+5s"
           id="animateSig1"
           repeatCount="0"
           fill="freeze"
           attributeName="stroke-dasharray"
           attributeType="XML" /></path><rect
         ry="45.135296"
         y="-3.2782359"
         x="-22.543915"
         height="190.48686"
         width="338.64334"
         id="rect95"
         style="fill:none;fill-rule:evenodd;stroke-width:0.239428;stroke-miterlimit:4;stroke-dasharray:none" /><path
         style="fill:#ffffff;stroke-width:2.18605"
         d="m 672.65486,717.18797 c -18.76968,-5.04697 -29.94676,-19.98399 -34.49434,-46.09812 -2.90978,-16.70918 -2.00073,-32.75281 4.82914,-85.22943 7.77415,-59.73181 6.1725,-93.66552 -4.69548,-99.48189 -8.30327,-4.44377 -24.76645,-2.53632 -35.19595,4.07788 -31.32057,19.86291 -57.41194,91.53956 -68.47365,188.10672 -3.66501,31.99502 -6.09037,37.36705 -16.8704,37.36705 -8.40621,0 -14.96352,-7.00016 -14.96352,-15.97412 0,-9.48086 7.72367,-71.55959 12.01962,-96.60727 10.47594,-61.08027 24.4483,-122.68025 41.80451,-184.3036 5.52283,-19.60884 9.53525,-36.1587 8.91649,-36.77746 -0.61876,-0.61876 -4.41353,0.59607 -8.43282,2.69962 -9.24592,4.839 -24.9063,4.91168 -33.98499,0.15775 -9.47492,-4.96143 -21.32467,-17.49236 -26.57339,-28.10097 -5.22374,-10.55811 -3.12113,-19.48228 5.51757,-23.41833 7.99863,-3.64442 12.89924,-1.30931 20.53083,9.78284 3.68001,5.3487 9.03329,11.25969 11.89619,13.13554 4.74585,3.1096 5.90409,3.07901 13.12315,-0.34666 9.56361,-4.53823 23.24337,-20.91039 38.3014,-45.83972 6.14778,-10.17796 13.16779,-19.57041 15.60003,-20.8721 5.77267,-3.08944 15.76679,0.87917 18.73071,7.43785 2.98335,6.60166 2.03332,11.10185 -10.23709,48.49177 -16.82094,51.25616 -37.25872,121.48001 -37.25872,128.02031 0,1.23735 4.49386,-1.18159 9.98636,-5.37543 14.08089,-10.75156 28.5866,-15.09632 46.93932,-14.0593 19.68771,1.11246 30.96866,8.58268 40.19012,26.61381 9.4074,18.3947 10.08213,46.65082 2.55195,106.8706 -6.7897,54.29811 -7.3142,80.34151 -1.83878,91.30208 3.54796,7.10223 4.63916,7.69834 15.20955,8.30882 12.10854,0.69931 28.14807,-5.47161 41.13237,-15.82492 l 6.23257,-4.9697 -4.93784,-15.04174 c -16.96763,-51.68697 -4.20862,-122.01477 28.94131,-159.52459 38.76953,-43.86853 97.51734,-31.15976 97.58085,21.10944 0.0415,34.13136 -28.30071,93.37719 -67.21618,140.50713 -11.08918,13.42993 -13.53869,17.63343 -11.19302,19.20789 9.59397,6.43972 17.40725,9.10831 29.513,10.08006 11.85143,0.95132 15.36244,0.25539 27.42437,-5.43583 18.22008,-8.59682 35.10355,-22.86292 54.25575,-45.84465 11.73305,-14.07912 15.3491,-19.93092 14.47304,-23.42147 -0.64232,-2.55923 -2.86958,-14.47143 -4.94945,-26.47156 -4.8319,-27.87845 -5.54624,-119.76845 -1.13825,-146.42304 13.57909,-82.11133 40.35258,-125.82976 79.36715,-129.59859 12.757,-1.23233 24.171,2.48051 33.90836,11.03001 22.3529,19.62612 25.5059,58.75857 9.6799,120.13813 -12.4207,48.17233 -39.2929,109.89312 -68.71053,157.81648 l -14.64098,23.85115 4.56838,13.72795 c 5.95958,17.90853 19.27673,38.31294 28.87833,44.24705 9.54056,5.89638 21.57849,6.04465 33.2198,0.40916 12.8226,-6.20728 34.018,-24.87994 49.4896,-43.59923 11.6239,-14.06389 13.2378,-17.10332 12.188,-22.95349 -0.6656,-3.70867 -2.7409,-15.10468 -4.6118,-25.32445 -18.6329,-101.77819 2.2571,-229.85239 44.5297,-273.0062 29.404,-30.01704 69.9976,-25.7427 85.7126,9.02519 4.6889,10.37383 5.1878,14.47207 5.1242,42.09731 -0.063,27.30416 -0.8494,33.66938 -7.2938,59.02325 -13.8648,54.54728 -46.1356,130.06204 -75.537,176.75909 -6.7055,10.65007 -12.1918,21.06794 -12.1918,23.15085 0,7.19755 13.3051,30.37977 21.8847,38.13092 10.332,9.33435 17.5167,11.48953 26.2472,7.87324 10.9945,-4.55406 20.559,-23.27816 35.1184,-68.75028 18.8961,-59.01661 25.1876,-76.37449 34.372,-94.83093 10.4458,-20.99139 24.2428,-35.66358 40.5535,-43.12597 11.3241,-5.18098 14.7811,-5.7434 29.9167,-4.86721 21.3284,1.23467 34.1912,7.31406 70.721,33.42503 14.2998,10.22125 27.8339,18.58409 30.0759,18.58409 2.6913,0 5.2246,-2.87013 7.4562,-8.44732 3.9929,-9.97931 11.4966,-14.28447 19.5563,-11.22018 13.0162,4.94875 11.6356,23.67177 -2.938,39.8451 -9.3092,10.33099 -19.2312,13.3034 -31.7902,9.52369 l -9.3221,-2.80555 -0.05,27.54051 c -0.077,42.3858 -9.5836,76.25408 -30.0438,107.03075 -38.2197,57.49061 -96.0876,55.54355 -124.7172,-4.19633 -4.0688,-8.49024 -8.0528,-19.31337 -8.8533,-24.05141 -0.8005,-4.73804 -2.1067,-8.60249 -2.9028,-8.58769 -0.7961,0.0153 -4.1733,6.76247 -7.505,14.99477 -8.4658,20.91837 -20.4222,37.15182 -33.1572,45.01828 -8.9715,5.54178 -12.9272,6.61509 -24.0186,6.51691 -9.0417,-0.08 -16.0729,-1.57699 -22.0374,-4.69184 -10.3058,-5.38211 -28.788,-24.53077 -34.9197,-36.179 -2.3735,-4.50873 -4.9559,-8.19768 -5.7387,-8.19768 -0.7829,0 -6.0983,5.472 -11.812,12.15999 -5.7137,6.68797 -16.9001,17.39075 -24.8586,23.7839 -53.65114,43.09869 -95.72858,30.53538 -126.25326,-37.6962 -0.16221,-0.3626 -10.07153,8.98275 -22.02068,20.76744 -31.8733,31.43465 -55.78412,44.16614 -83.21573,44.30884 -16.58868,0.0863 -33.98023,-5.62284 -48.1589,-15.80922 l -10.28837,-7.39144 -8.73161,6.3775 c -13.14818,9.60331 -31.40009,18.24031 -44.36247,20.9928 -13.54893,2.87704 -11.83318,2.92172 -25.13284,-0.65443 z m 626.42604,-44.13803 c 12.9756,-9.11959 26.7957,-31.1021 34.8551,-55.44095 6.2567,-18.89499 6.9079,-23.44386 7.0485,-49.23694 0.1202,-22.0729 -0.7268,-30.94604 -3.7939,-39.73751 -9.3328,-26.75138 -28.0332,-40.85206 -54.4291,-41.04118 -14.4233,-0.10334 -14.8128,0.0477 -24.4246,9.47548 -17.4702,17.13578 -27.6077,49.54202 -27.5763,88.15291 0.036,44.94041 11.0525,77.64133 30.6402,90.95588 10.27,6.98096 25.0418,5.75481 37.6801,-3.12769 z M 771.58375,626.15512 c 31.75416,-40.83896 52.53942,-85.23555 52.87019,-112.92893 0.18538,-15.5117 -3.44809,-19.02445 -17.73026,-17.14164 -20.747,2.73508 -38.56848,23.12813 -49.64957,56.81377 -5.10582,15.5213 -5.81816,21.23344 -5.88261,47.17141 -0.0686,27.58449 2.2209,41.62155 6.76597,41.48339 0.9315,-0.0282 7.06333,-6.95742 13.62628,-15.398 z m 329.76505,-68.16679 c 25.1864,-45.47446 51.9992,-114.75718 60.7015,-156.84882 4.7669,-23.0567 5.3649,-57.36784 1.1731,-67.30447 -7.0406,-16.68959 -25.9722,-15.44282 -42.4753,2.79727 -12.7527,14.09489 -28.2968,59.69893 -34.6541,101.66998 -4.9005,32.35295 -3.0557,139.90697 2.3997,139.90697 0.9106,0 6.6954,-9.09942 12.8551,-20.22093 z m -157.18882,-12.6687 c 40.60502,-77.49686 62.57522,-158.9518 52.58001,-194.94125 -4.58823,-16.52066 -20.55312,-19.85215 -34.54736,-7.2092 -21.67852,19.58525 -34.83572,63.21455 -39.77524,131.89486 -2.11758,29.44337 0.27373,91.57196 3.74048,97.18129 1.88314,3.04698 3.79965,0.18035 18.00211,-26.9257 z"
         id="path992"
         transform="matrix(0.31380756,0,0,0.30254234,-122.52832,-60.411666)" /></g></g></svg>
